<?xml version="1.0" encoding="utf-8"?>
<!-- Generator: Adobe Illustrator 24.1.0, SVG Export Plug-In . SVG Version: 6.00 Build 0)  -->
<svg version="1.1" id="Layer_1" xmlns="http://www.w3.org/2000/svg" xmlns:xlink="http://www.w3.org/1999/xlink" x="0px" y="0px"
	 viewBox="0 0 53.1 54.1" style="enable-background:new 0 0 53.1 54.1;" xml:space="preserve">
<style type="text/css">
	.st0{fill:#6685DB;}
	.st1{fill:#231F20;stroke:#050606;stroke-miterlimit:10;}
	.st2{fill:#FFFFFF;stroke:#050606;stroke-miterlimit:10;}
	.st3{stroke:#050606;stroke-miterlimit:10;}
	.st4{fill:#FFFFFF;}
	.st5{fill:#FFFFFF;stroke:#050606;stroke-width:0.2;stroke-miterlimit:10;}
	.st6{fill:#231F20;stroke:#231F20;stroke-miterlimit:10;}
	.st7{fill:#FFFFFF;stroke:#000000;stroke-miterlimit:10;}
</style>
<path class="st6" d="M39.8,53.2H28.6c-2.2-4.5-4.7-8.8-7.2-13c-2.6-4.3-5.4-8.5-8.3-12.4h-0.7v18c0,0.7,0.1,1.5,0.4,2.2
	c0.3,0.7,0.7,1.3,1.2,1.6c0.5,0.2,1.1,0.5,1.7,0.6c0.7,0.2,1.3,0.3,2,0.3v2.6H1.2v-2.6L3,50.3c0.6,0,1.2-0.2,1.8-0.5s1-0.8,1.2-1.4
	c0.3-0.7,0.4-1.5,0.4-2.3V8.7c0-0.7-0.1-1.5-0.3-2.2C5.8,5.8,5.4,5.3,4.8,5C4.2,4.7,3.6,4.5,3,4.2S1.8,3.8,1.1,3.8V1.2h16.5v2.5
	c-0.6,0-1.3,0.1-1.9,0.3c-0.6,0.1-1.1,0.3-1.8,0.6c-0.6,0.2-1.1,0.8-1.3,1.5c-0.3,0.7-0.4,1.5-0.4,2.3v18h0.5c1.7-1.8,3.3-3.8,5-5.9
	c1.7-2.1,3.1-4,4.4-6c1.1-1.7,2.2-3.4,3.3-5.4c0.6-1,1-2.3,1.1-3.6c0-0.5-0.3-0.8-0.5-0.9c-0.4-0.2-0.8-0.5-1.2-0.6
	c-0.4-0.1-1-0.2-1.4-0.2l-0.8-0.3V1.1h15v2.5h-0.4l-0.6,0.1c-0.3,0-0.5,0.1-0.8,0.1l-1,0.2c-0.7,0.2-1.4,0.6-2,0.9
	c-0.7,0.3-1.2,0.9-1.8,1.6c-2,2.9-4,5.9-6.2,8.8s-4.1,5.9-6.2,8.4c2.8,4.3,5.2,7.8,7.1,10.9c1.8,3,3.9,6.3,6,9.8
	c0.7,1.1,1.5,2.3,2.4,3.2c0.6,0.7,1.3,1.3,2.1,1.8c0.6,0.3,1.2,0.6,1.8,0.7c0.6,0.1,1.2,0.2,1.8,0.3L39.8,53.2L39.8,53.2z"/>
<path class="st7" d="M52.3,37.7l-0.9,15.5H20.3v-2.6c0.4,0,1.1-0.1,1.9-0.2c0.6-0.1,1.2-0.2,1.8-0.5s1-0.8,1.2-1.4
	c0.3-0.7,0.4-1.5,0.4-2.3V8.8c0-0.8-0.1-1.5-0.4-2.2c-0.3-0.7-0.7-1.3-1.3-1.5c-0.6-0.3-1.1-0.7-1.8-0.9c-0.6-0.2-1.2-0.5-1.9-0.6
	V1.1h16.8v2.5c-0.4,0-1.1,0.2-1.8,0.3c-0.6,0.1-1.2,0.3-1.8,0.6S32.2,5.4,32,6.1c-0.3,0.7-0.4,1.5-0.4,2.3v35c0,1.3,0,2.5,0.2,3.8
	c0.1,0.8,0.4,1.5,0.9,2.1c0.6,0.5,1.2,0.8,1.9,0.9c1.2,0.1,2.4,0.2,3.6,0.2c0.7,0,1.4,0,2.2-0.1c0.7,0,1.4-0.1,2.1-0.2
	c0.6-0.1,1.2-0.3,1.8-0.6c0.4-0.2,0.9-0.6,1.2-0.9c1.1-1.6,1.9-3.3,2.6-5.2c0.8-1.7,1.6-3.7,2.1-5.5L52.3,37.7z"/>
</svg>
