<svg id="Layer_1" data-name="Layer 1" xmlns="http://www.w3.org/2000/svg" viewBox="0 0 57.36 45.36"><defs><style>.cls-1{fill:#fff;}</style></defs><path d="M46.14,45.36H33.42a139.13,139.13,0,0,0-8.17-11.3q-4.48-5.61-9.41-10.83H15V39a4.21,4.21,0,0,0,.4,1.88,3,3,0,0,0,1.45,1.38,12.63,12.63,0,0,0,1.91.55,12.05,12.05,0,0,0,2.31.35V45.4H2.26V43.09L4.4,42.9a6.82,6.82,0,0,0,2-.39,2.66,2.66,0,0,0,1.39-1.23,4.08,4.08,0,0,0,.43-2V6.59A4.4,4.4,0,0,0,7.85,4.7,2.77,2.77,0,0,0,6.36,3.39a11.66,11.66,0,0,0-2-.73,11.51,11.51,0,0,0-2.1-.43V0H21.08V2.23a16.8,16.8,0,0,0-2.23.29,13.55,13.55,0,0,0-2,.48,2.36,2.36,0,0,0-1.49,1.32,5,5,0,0,0-.38,2V21.93h.64c1.92-1.62,3.8-3.31,5.66-5.07s3.53-3.51,5-5.25A51.56,51.56,0,0,0,30,7a5.77,5.77,0,0,0,1.16-3.09.87.87,0,0,0-.59-.78,6.44,6.44,0,0,0-1.35-.5,14.36,14.36,0,0,0-1.6-.24l-1.12-.12V0h17V2.23h-.41l-.74.06a5.58,5.58,0,0,0-.9.13l-1.11.3A11.23,11.23,0,0,0,38,3.54a6.31,6.31,0,0,0-2,1.39q-3.28,3.73-6.86,7.73T22.1,20q4.86,5.49,8,9.45t6.76,8.47a15.23,15.23,0,0,0,2.74,2.76A16.16,16.16,0,0,0,42,42.23a7.53,7.53,0,0,0,2.07.64,15.82,15.82,0,0,0,2.07.26Z"/><path class="cls-1" d="M57.36,31.87l-1,13.49H21V43.09c.51,0,1.25-.12,2.22-.22a7.67,7.67,0,0,0,2-.42,2.78,2.78,0,0,0,1.42-1.22,4.32,4.32,0,0,0,.43-2V6.72a4.53,4.53,0,0,0-.37-1.92A2.75,2.75,0,0,0,25.2,3.46a10.8,10.8,0,0,0-2.06-.75A11.73,11.73,0,0,0,21,2.23V0H40.1V2.23a16.39,16.39,0,0,0-2.32.32c-.69.14-1.38.31-2.06.51a2.41,2.41,0,0,0-1.49,1.32,4.9,4.9,0,0,0-.4,2V36.86A19.89,19.89,0,0,0,34,40.13a3,3,0,0,0,1,1.81,4.42,4.42,0,0,0,2.19.75,34.81,34.81,0,0,0,4.08.18c.79,0,1.61,0,2.46-.07a22,22,0,0,0,2.43-.25A13.25,13.25,0,0,0,48.26,42a3.34,3.34,0,0,0,1.39-.85,28.14,28.14,0,0,0,3.05-4.46,32.15,32.15,0,0,0,2.42-4.84Z"/></svg>