<svg xmlns="http://www.w3.org/2000/svg" version="1.1" xmlns:xlink="http://www.w3.org/1999/xlink" xmlns:svgjs="http://svgjs.dev/svgjs" width="1000" height="1000" viewBox="0 0 1000 1000"><rect width="1000" height="1000" fill="#000000"></rect><g transform="matrix(0.7,0,0,0.7,149.57575757575756,366.30354537582264)"><svg viewBox="0 0 396 151" data-background-color="#dedede" preserveAspectRatio="xMidYMid meet" height="381" width="1000" xmlns="http://www.w3.org/2000/svg" xmlns:xlink="http://www.w3.org/1999/xlink"><g id="tight-bounds" transform="matrix(1,0,0,1,0.2400000000000091,0.19615541151395632)"><svg viewBox="0 0 395.52 150.6076886128484" height="150.6076886128484" width="395.52"><g><svg viewBox="0 0 395.52 150.6076886128484" height="150.6076886128484" width="395.52"><g><svg viewBox="0 0 395.52 150.6076886128484" height="150.6076886128484" width="395.52"><g><svg viewBox="0 0 395.52 150.6076886128484" height="150.6076886128484" width="395.52"><g><svg viewBox="0 0 395.52 103.75494654907317" height="103.75494654907317" width="395.52"><rect width="395.52" height="103.75494654907317" x="0" y="0" opacity="1" fill="#374151" data-fill-palette-color="tertiary"></rect><g transform="matrix(1,0,0,1,23.461705032,23.461705032)"><svg width="348.596589936" viewBox="2.9000000953674316 -37.599998474121094 233.69000244140625 38.099998474121094" height="56.831536485073165" data-palette-color="#dedede"><path d="M18.95-37.6L18.95-37.6Q21.6-37.6 23.98-36.77 26.35-35.95 28.25-34.5 30.15-33.05 31.38-31.18 32.6-29.3 32.95-27.1L32.95-27.1Q33.05-26.55 32.95-26.38 32.85-26.2 32.5-26.15L32.5-26.15 27.85-25.85Q27.55-25.8 27.45-25.95 27.35-26.1 27.25-26.4L27.25-26.4Q26.6-29.4 24.5-31.3 22.4-33.2 19.15-33.2L19.15-33.2Q14.4-33.2 11.83-29.6 9.25-26 9.25-18.6L9.25-18.6Q9.25-11.3 11.78-7.7 14.3-4.1 19.35-4.1L19.35-4.1Q22.7-4.1 24.98-5.73 27.25-7.35 28.7-11.05L28.7-11.05Q28.85-11.4 29.45-11.3L29.45-11.3 33-10.45Q33.15-10.4 33.3-10.25 33.45-10.1 33.35-9.6L33.35-9.6Q33-8.3 32.2-6.9 31.4-5.5 30.2-4.17 29-2.85 27.35-1.8 25.7-0.75 23.63-0.13 21.55 0.5 19.1 0.5L19.1 0.5Q14.05 0.5 10.43-1.85 6.8-4.2 4.85-8.5 2.9-12.8 2.9-18.65L2.9-18.65Q2.9-24.55 4.85-28.8 6.8-33.05 10.4-35.33 14-37.6 18.95-37.6L18.95-37.6ZM54.8 0.5L54.8 0.5Q49.75 0.5 46.1-1.73 42.45-3.95 40.5-8.18 38.55-12.4 38.55-18.4L38.55-18.4Q38.55-24.45 40.55-28.75 42.55-33.05 46.2-35.33 49.85-37.6 54.85-37.6L54.85-37.6Q59.8-37.6 63.42-35.33 67.05-33.05 69.02-28.78 71-24.5 71-18.45L71-18.45Q71-12.45 69.05-8.22 67.1-4 63.45-1.75 59.8 0.5 54.8 0.5L54.8 0.5ZM54.85-3.95L54.85-3.95Q59.85-3.95 62.27-7.43 64.7-10.9 64.7-18.4L64.7-18.4Q64.7-26 62.22-29.6 59.75-33.2 54.85-33.2L54.85-33.2Q49.85-33.2 47.35-29.58 44.85-25.95 44.85-18.4L44.85-18.4Q44.85-10.95 47.35-7.45 49.85-3.95 54.85-3.95L54.85-3.95ZM103.05-37.1L106.84-37.1Q107.4-37.1 107.4-36.45L107.4-36.45 107.4-0.65Q107.4-0.35 107.2-0.18 107 0 106.65 0L106.65 0 103.4 0Q103.05 0 102.8-0.08 102.55-0.15 102.3-0.5L102.3-0.5 84.05-26.7Q83.8-27.05 83.65-27 83.5-26.95 83.5-26.65L83.5-26.65 83.5-0.7Q83.5 0 82.7 0L82.7 0 79.15 0Q78.35 0 78.35-0.7L78.35-0.7 78.35-36.35Q78.35-37.1 79.1-37.1L79.1-37.1 83-37.1Q83.4-37.1 83.62-37 83.85-36.9 84.1-36.5L84.1-36.5 101.6-11.15Q101.9-10.75 102.12-10.83 102.35-10.9 102.35-11.25L102.35-11.25 102.35-36.4Q102.35-37.1 103.05-37.1L103.05-37.1ZM136.69-29.6L136.69-29.6Q135.39-31.05 133.49-32.1 131.59-33.15 128.54-33.15L128.54-33.15Q124.99-33.15 123.02-31.68 121.04-30.2 121.04-27.6L121.04-27.6Q121.04-26.9 121.39-25.95 121.74-25 122.82-24.13 123.89-23.25 125.94-22.5L125.94-22.5 133.44-20.15Q137.99-18.75 139.97-16.18 141.94-13.6 141.94-10.15L141.94-10.15Q141.94-6.85 140.27-4.45 138.59-2.05 135.52-0.78 132.44 0.5 128.19 0.5L128.19 0.5Q125.04 0.5 122.37-0.23 119.69-0.95 117.62-2.38 115.54-3.8 114.14-5.85L114.14-5.85Q113.94-6.2 113.99-6.5 114.04-6.8 114.44-7.1L114.44-7.1 116.89-8.8Q117.44-9.15 117.74-9.1 118.04-9.05 118.29-8.75L118.29-8.75Q119.54-7.15 120.82-6.05 122.09-4.95 123.77-4.42 125.44-3.9 127.84-3.9L127.84-3.9Q131.59-3.9 133.87-5.23 136.14-6.55 136.14-9.45L136.14-9.45Q136.14-10.6 135.69-11.53 135.24-12.45 134.14-13.23 133.04-14 130.94-14.75L130.94-14.75 123.39-17.2Q120.54-18.15 118.77-19.65 116.99-21.15 116.14-23.05 115.29-24.95 115.29-26.95L115.29-26.95Q115.29-30.15 116.94-32.55 118.59-34.95 121.54-36.27 124.49-37.6 128.44-37.6L128.44-37.6Q131.09-37.6 133.32-36.98 135.54-36.35 137.39-35.23 139.24-34.1 140.54-32.55L140.54-32.55Q140.74-32.3 140.82-32.05 140.89-31.8 140.54-31.5L140.54-31.5 137.69-29.3Q137.39-29.1 137.22-29.18 137.04-29.25 136.69-29.6L136.69-29.6ZM176.04-12.8L176.04-12.8Q176.04-8.1 174.44-5.15 172.84-2.2 169.74-0.85 166.64 0.5 162.19 0.5L162.19 0.5Q157.29 0.5 154.24-1.07 151.19-2.65 149.77-5.8 148.34-8.95 148.34-13.65L148.34-13.65 148.34-36.3Q148.34-37.1 148.99-37.1L148.99-37.1 153.74-37.1Q154.39-37.1 154.39-36.35L154.39-36.35 154.39-12.6Q154.39-8.2 156.49-6.1 158.59-4 162.64-4L162.64-4Q165.29-4 167.17-4.9 169.04-5.8 170.04-7.75 171.04-9.7 171.04-12.75L171.04-12.75 171.04-36.35Q171.04-37.1 171.64-37.1L171.64-37.1 175.44-37.1Q176.04-37.1 176.04-36.4L176.04-36.4 176.04-12.8ZM184.44-36.35L184.44-36.35Q184.44-37.1 185.14-37.1L185.14-37.1 189.84-37.1Q190.49-37.1 190.49-36.35L190.49-36.35 190.49-5.1Q190.49-4.55 190.99-4.55L190.99-4.55 207.89-4.55Q208.59-4.55 208.59-3.95L208.59-3.95 208.59-0.65Q208.59-0.35 208.41-0.18 208.24 0 207.89 0L207.89 0 185.29 0Q184.79 0 184.61-0.2 184.44-0.4 184.44-0.8L184.44-0.8 184.44-36.35ZM207.69-33.2L207.69-36.4Q207.69-36.75 207.86-36.93 208.04-37.1 208.44-37.1L208.44-37.1 235.89-37.1Q236.29-37.1 236.44-36.93 236.59-36.75 236.59-36.4L236.59-36.4 236.59-33.2Q236.59-32.6 235.89-32.6L235.89-32.6 225.99-32.6Q225.44-32.6 225.44-32.15L225.44-32.15 225.44-0.75Q225.44 0 224.79 0L224.79 0 220.09 0Q219.44 0 219.44-0.7L219.44-0.7 219.44-32.05Q219.44-32.6 218.89-32.6L218.89-32.6 208.39-32.6Q207.69-32.6 207.69-33.2L207.69-33.2Z" opacity="1" transform="matrix(1,0,0,1,0,0)" fill="#dedede" class="undefined-text-0" data-fill-palette-color="quaternary" id="text-0"></path></svg></g></svg></g><g transform="matrix(1,0,0,1,0,115.48579906507317)"><svg viewBox="0 0 395.52 35.12188954777522" height="35.12188954777522" width="395.52"><g transform="matrix(1,0,0,1,0,0)"><svg width="395.52" viewBox="4.849999904632568 -35.95000076293945 534.9100341796875 47.5" height="35.12188954777522" data-palette-color="#374151"><path d="M23.4 0L4.85 0 4.85-32.95 22.9-32.95 22.9-30.95 7.15-30.95 7.15-18.5 20.35-18.5 20.35-16.5 7.15-16.5 7.15-2 23.4-2 23.4 0ZM34.41 0L32.06 0 40.21-12.55 32.71-24 35.16-24 39.06-17.9Q39.66-16.9 40.29-15.93 40.91-14.95 41.61-13.95L41.61-13.95 41.81-13.95Q42.46-14.95 43.04-15.93 43.61-16.9 44.26-17.9L44.26-17.9 48.01-24 50.31-24 42.86-12.35 51.01 0 48.56 0 44.31-6.55Q43.61-7.7 42.91-8.8 42.21-9.9 41.46-10.95L41.46-10.95 41.26-10.95Q40.56-9.9 39.89-8.8 39.21-7.7 38.51-6.55L38.51-6.55 34.41 0ZM71.58 0.6L71.58 0.6Q69.28 0.6 67.25-0.25 65.23-1.1 63.73-2.73 62.23-4.35 61.35-6.68 60.48-9 60.48-11.95L60.48-11.95Q60.48-14.9 61.35-17.25 62.23-19.6 63.7-21.23 65.18-22.85 67.05-23.73 68.93-24.6 70.93-24.6L70.93-24.6Q75.23-24.6 77.68-21.7 80.13-18.8 80.13-13.5L80.13-13.5Q80.13-13.05 80.13-12.6 80.13-12.15 80.03-11.7L80.03-11.7 62.73-11.7Q62.78-9.45 63.43-7.53 64.08-5.6 65.25-4.23 66.43-2.85 68.08-2.08 69.73-1.3 71.78-1.3L71.78-1.3Q73.73-1.3 75.3-1.88 76.88-2.45 78.23-3.45L78.23-3.45 79.13-1.75Q77.68-0.9 75.95-0.15 74.23 0.6 71.58 0.6ZM62.73-13.5L62.73-13.5 78.03-13.5Q78.03-18.15 76.13-20.43 74.23-22.7 70.98-22.7L70.98-22.7Q69.43-22.7 68.03-22.08 66.63-21.45 65.5-20.25 64.38-19.05 63.65-17.35 62.93-15.65 62.73-13.5ZM102.29 0.6L102.29 0.6Q99.94 0.6 97.97-0.25 95.99-1.1 94.52-2.7 93.04-4.3 92.22-6.63 91.39-8.95 91.39-11.95L91.39-11.95Q91.39-14.95 92.29-17.32 93.19-19.7 94.69-21.3 96.19-22.9 98.17-23.75 100.14-24.6 102.34-24.6L102.34-24.6Q104.84-24.6 106.49-23.7 108.14-22.8 109.39-21.65L109.39-21.65 108.09-20.1Q106.94-21.2 105.54-21.93 104.14-22.65 102.39-22.65L102.39-22.65Q100.54-22.65 98.97-21.88 97.39-21.1 96.22-19.68 95.04-18.25 94.37-16.3 93.69-14.35 93.69-11.95L93.69-11.95Q93.69-9.6 94.32-7.65 94.94-5.7 96.07-4.3 97.19-2.9 98.82-2.13 100.44-1.35 102.39-1.35L102.39-1.35Q104.29-1.35 105.92-2.15 107.54-2.95 108.79-4.1L108.79-4.1 109.94-2.55Q108.39-1.2 106.49-0.3 104.59 0.6 102.29 0.6ZM129.51 0.6L129.51 0.6Q125.76 0.6 124.01-1.65 122.26-3.9 122.26-8.6L122.26-8.6 122.26-24 124.46-24 124.46-8.9Q124.46-5.05 125.73-3.23 127.01-1.4 129.91-1.4L129.91-1.4Q132.06-1.4 133.81-2.58 135.56-3.75 137.66-6.3L137.66-6.3 137.66-24 139.86-24 139.86 0 138.01 0 137.76-4 137.66-4Q135.91-1.9 133.96-0.65 132.01 0.6 129.51 0.6ZM162.37 0.6L162.37 0.6Q160.62 0.6 159.47 0.08 158.32-0.45 157.62-1.4 156.92-2.35 156.64-3.7 156.37-5.05 156.37-6.65L156.37-6.65 156.37-22.1 152.62-22.1 152.62-23.8 156.42-24 156.72-30.95 158.62-30.95 158.62-24 165.57-24 165.57-22.1 158.62-22.1 158.62-6.45Q158.62-5.3 158.79-4.38 158.97-3.45 159.42-2.78 159.87-2.1 160.64-1.73 161.42-1.35 162.67-1.35L162.67-1.35Q163.37-1.35 164.19-1.58 165.02-1.8 165.67-2.1L165.67-2.1 166.27-0.3Q165.22 0.1 164.17 0.35 163.12 0.6 162.37 0.6ZM180.38 0L178.18 0 178.18-24 180.38-24 180.38 0ZM179.33-29.8L179.33-29.8Q178.48-29.8 177.91-30.35 177.33-30.9 177.33-31.75L177.33-31.75Q177.33-32.7 177.91-33.23 178.48-33.75 179.33-33.75L179.33-33.75Q180.18-33.75 180.76-33.23 181.33-32.7 181.33-31.75L181.33-31.75Q181.33-30.9 180.76-30.35 180.18-29.8 179.33-29.8ZM204 0L201.4 0 192.4-24 194.8-24 200.2-8.95Q200.75-7.2 201.4-5.45 202.05-3.7 202.6-2.05L202.6-2.05 202.8-2.05Q203.4-3.7 204.02-5.45 204.65-7.2 205.25-8.95L205.25-8.95 210.65-24 212.9-24 204 0ZM233.96 0.6L233.96 0.6Q231.66 0.6 229.64-0.25 227.61-1.1 226.11-2.73 224.61-4.35 223.74-6.68 222.86-9 222.86-11.95L222.86-11.95Q222.86-14.9 223.74-17.25 224.61-19.6 226.09-21.23 227.56-22.85 229.44-23.73 231.31-24.6 233.31-24.6L233.31-24.6Q237.61-24.6 240.06-21.7 242.51-18.8 242.51-13.5L242.51-13.5Q242.51-13.05 242.51-12.6 242.51-12.15 242.41-11.7L242.41-11.7 225.11-11.7Q225.16-9.45 225.81-7.53 226.46-5.6 227.64-4.23 228.81-2.85 230.46-2.08 232.11-1.3 234.16-1.3L234.16-1.3Q236.11-1.3 237.69-1.88 239.26-2.45 240.61-3.45L240.61-3.45 241.51-1.75Q240.06-0.9 238.34-0.15 236.61 0.6 233.96 0.6ZM225.11-13.5L225.11-13.5 240.41-13.5Q240.41-18.15 238.51-20.43 236.61-22.7 233.36-22.7L233.36-22.7Q231.81-22.7 230.41-22.08 229.01-21.45 227.89-20.25 226.76-19.05 226.04-17.35 225.31-15.65 225.11-13.5ZM281.44 0.6L281.44 0.6Q279.09 0.6 277.11-0.25 275.14-1.1 273.66-2.7 272.19-4.3 271.36-6.63 270.54-8.95 270.54-11.95L270.54-11.95Q270.54-14.95 271.44-17.32 272.34-19.7 273.84-21.3 275.34-22.9 277.31-23.75 279.29-24.6 281.49-24.6L281.49-24.6Q283.99-24.6 285.64-23.7 287.29-22.8 288.54-21.65L288.54-21.65 287.24-20.1Q286.09-21.2 284.69-21.93 283.29-22.65 281.54-22.65L281.54-22.65Q279.69-22.65 278.11-21.88 276.54-21.1 275.36-19.68 274.19-18.25 273.51-16.3 272.84-14.35 272.84-11.95L272.84-11.95Q272.84-9.6 273.46-7.65 274.09-5.7 275.21-4.3 276.34-2.9 277.96-2.13 279.59-1.35 281.54-1.35L281.54-1.35Q283.44-1.35 285.06-2.15 286.69-2.95 287.94-4.1L287.94-4.1 289.09-2.55Q287.54-1.2 285.64-0.3 283.74 0.6 281.44 0.6ZM309.65 0.6L309.65 0.6Q307.5 0.6 305.55-0.25 303.6-1.1 302.13-2.7 300.65-4.3 299.78-6.63 298.9-8.95 298.9-11.95L298.9-11.95Q298.9-14.95 299.78-17.32 300.65-19.7 302.13-21.3 303.6-22.9 305.55-23.75 307.5-24.6 309.65-24.6L309.65-24.6Q311.8-24.6 313.78-23.75 315.75-22.9 317.23-21.3 318.7-19.7 319.58-17.32 320.45-14.95 320.45-11.95L320.45-11.95Q320.45-8.95 319.58-6.63 318.7-4.3 317.23-2.7 315.75-1.1 313.78-0.25 311.8 0.6 309.65 0.6ZM309.65-1.35L309.65-1.35Q311.45-1.35 313.03-2.13 314.6-2.9 315.73-4.3 316.85-5.7 317.5-7.65 318.15-9.6 318.15-11.95L318.15-11.95Q318.15-14.35 317.5-16.3 316.85-18.25 315.73-19.68 314.6-21.1 313.03-21.88 311.45-22.65 309.65-22.65L309.65-22.65Q307.85-22.65 306.3-21.88 304.75-21.1 303.63-19.68 302.5-18.25 301.85-16.3 301.2-14.35 301.2-11.95L301.2-11.95Q301.2-9.6 301.85-7.65 302.5-5.7 303.63-4.3 304.75-2.9 306.3-2.13 307.85-1.35 309.65-1.35ZM336.62 0L334.42 0 334.42-24 336.32-24 336.52-20.3 336.67-20.3Q338.52-22.15 340.47-23.38 342.42-24.6 344.92-24.6L344.92-24.6Q348.67-24.6 350.42-22.35 352.17-20.1 352.17-15.4L352.17-15.4 352.17 0 349.97 0 349.97-15.1Q349.97-18.95 348.69-20.78 347.42-22.6 344.47-22.6L344.47-22.6Q342.32-22.6 340.57-21.48 338.82-20.35 336.62-18.1L336.62-18.1 336.62 0ZM373.58 0.6L373.58 0.6Q370.88 0.6 368.63-0.38 366.38-1.35 364.78-2.7L364.78-2.7 366.08-4.35Q367.63-3.05 369.38-2.18 371.13-1.3 373.73-1.3L373.73-1.3Q376.58-1.3 378.01-2.73 379.43-4.15 379.43-6.05L379.43-6.05Q379.43-7.15 378.91-8 378.38-8.85 377.53-9.45 376.68-10.05 375.66-10.5 374.63-10.95 373.58-11.35L373.58-11.35Q372.23-11.85 370.86-12.4 369.48-12.95 368.38-13.73 367.28-14.5 366.61-15.58 365.93-16.65 365.93-18.2L365.93-18.2Q365.93-19.5 366.43-20.68 366.93-21.85 367.93-22.73 368.93-23.6 370.36-24.1 371.78-24.6 373.68-24.6L373.68-24.6Q375.58-24.6 377.41-23.9 379.23-23.2 380.53-22.1L380.53-22.1 379.33-20.55Q378.13-21.45 376.78-22.08 375.43-22.7 373.58-22.7L373.58-22.7Q372.18-22.7 371.18-22.33 370.18-21.95 369.51-21.35 368.83-20.75 368.51-19.95 368.18-19.15 368.18-18.35L368.18-18.35Q368.18-17.3 368.66-16.57 369.13-15.85 369.93-15.3 370.73-14.75 371.76-14.33 372.78-13.9 373.83-13.5L373.83-13.5Q375.23-12.95 376.63-12.4 378.03-11.85 379.16-11.05 380.28-10.25 380.98-9.08 381.68-7.9 381.68-6.15L381.68-6.15Q381.68-4.8 381.16-3.58 380.63-2.35 379.58-1.43 378.53-0.5 377.03 0.05 375.53 0.6 373.58 0.6ZM401.69 0.6L401.69 0.6Q397.94 0.6 396.19-1.65 394.44-3.9 394.44-8.6L394.44-8.6 394.44-24 396.64-24 396.64-8.9Q396.64-5.05 397.92-3.23 399.19-1.4 402.09-1.4L402.09-1.4Q404.24-1.4 405.99-2.58 407.74-3.75 409.84-6.3L409.84-6.3 409.84-24 412.04-24 412.04 0 410.19 0 409.94-4 409.84-4Q408.09-1.9 406.14-0.65 404.19 0.6 401.69 0.6ZM430.96 0.6L430.96 0.6Q428.01 0.6 428.01-3.2L428.01-3.2 428.01-35.95 430.21-35.95 430.21-2.9Q430.21-2.1 430.51-1.73 430.81-1.35 431.26-1.35L431.26-1.35Q431.41-1.35 431.58-1.35 431.76-1.35 432.16-1.45L432.16-1.45 432.56 0.35Q432.21 0.45 431.86 0.53 431.51 0.6 430.96 0.6ZM453.17 0.6L453.17 0.6Q451.42 0.6 450.27 0.08 449.12-0.45 448.42-1.4 447.72-2.35 447.45-3.7 447.17-5.05 447.17-6.65L447.17-6.65 447.17-22.1 443.42-22.1 443.42-23.8 447.22-24 447.52-30.95 449.42-30.95 449.42-24 456.37-24 456.37-22.1 449.42-22.1 449.42-6.45Q449.42-5.3 449.6-4.38 449.77-3.45 450.22-2.78 450.67-2.1 451.45-1.73 452.22-1.35 453.47-1.35L453.47-1.35Q454.17-1.35 455-1.58 455.82-1.8 456.47-2.1L456.47-2.1 457.07-0.3Q456.02 0.1 454.97 0.35 453.92 0.6 453.17 0.6ZM471.19 0L468.99 0 468.99-24 471.19-24 471.19 0ZM470.14-29.8L470.14-29.8Q469.29-29.8 468.71-30.35 468.14-30.9 468.14-31.75L468.14-31.75Q468.14-32.7 468.71-33.23 469.29-33.75 470.14-33.75L470.14-33.75Q470.99-33.75 471.56-33.23 472.14-32.7 472.14-31.75L472.14-31.75Q472.14-30.9 471.56-30.35 470.99-29.8 470.14-29.8ZM489.4 0L487.2 0 487.2-24 489.1-24 489.3-20.3 489.45-20.3Q491.3-22.15 493.25-23.38 495.2-24.6 497.7-24.6L497.7-24.6Q501.45-24.6 503.2-22.35 504.95-20.1 504.95-15.4L504.95-15.4 504.95 0 502.75 0 502.75-15.1Q502.75-18.95 501.48-20.78 500.2-22.6 497.25-22.6L497.25-22.6Q495.1-22.6 493.35-21.48 491.6-20.35 489.4-18.1L489.4-18.1 489.4 0ZM528.41 11.55L528.41 11.55Q523.86 11.55 521.21 9.75 518.56 7.95 518.56 4.9L518.56 4.9Q518.56 3.3 519.51 1.8 520.46 0.3 522.11-0.9L522.11-0.9 522.11-1.1Q521.21-1.65 520.61-2.6 520.01-3.55 520.01-4.95L520.01-4.95Q520.01-6.55 520.91-7.68 521.81-8.8 522.61-9.35L522.61-9.35 522.61-9.55Q521.46-10.55 520.54-12.25 519.61-13.95 519.61-16.15L519.61-16.15Q519.61-18 520.26-19.55 520.91-21.1 522.06-22.23 523.21-23.35 524.76-23.98 526.31-24.6 528.06-24.6L528.06-24.6Q529.06-24.6 529.86-24.43 530.66-24.25 531.21-24L531.21-24 539.36-24 539.36-22.15 533.76-22.15Q534.91-21.15 535.66-19.58 536.41-18 536.41-16.1L536.41-16.1Q536.41-14.25 535.76-12.7 535.11-11.15 533.99-10.03 532.86-8.9 531.34-8.28 529.81-7.65 528.06-7.65L528.06-7.65Q527.06-7.65 525.99-7.9 524.91-8.15 524.06-8.65L524.06-8.65Q523.26-8 522.69-7.2 522.11-6.4 522.11-5.2L522.11-5.2Q522.11-3.9 523.06-2.98 524.01-2.05 526.71-2.05L526.71-2.05 531.86-2.05Q535.91-2.05 537.84-0.73 539.76 0.6 539.76 3.45L539.76 3.45Q539.76 5 538.96 6.48 538.16 7.95 536.69 9.08 535.21 10.2 533.11 10.88 531.01 11.55 528.41 11.55ZM528.06-9.4L528.06-9.4Q529.31-9.4 530.44-9.88 531.56-10.35 532.41-11.25 533.26-12.15 533.76-13.4 534.26-14.65 534.26-16.15L534.26-16.15Q534.26-17.65 533.76-18.9 533.26-20.15 532.44-21 531.61-21.85 530.46-22.33 529.31-22.8 528.06-22.8L528.06-22.8Q526.76-22.8 525.64-22.33 524.51-21.85 523.66-21 522.81-20.15 522.31-18.93 521.81-17.7 521.81-16.15L521.81-16.15Q521.81-14.65 522.31-13.4 522.81-12.15 523.69-11.25 524.56-10.35 525.69-9.88 526.81-9.4 528.06-9.4ZM528.66 9.75L528.66 9.75Q530.66 9.75 532.31 9.22 533.96 8.7 535.11 7.85 536.26 7 536.89 5.93 537.51 4.85 537.51 3.7L537.51 3.7Q537.51 1.7 536.09 0.88 534.66 0.05 531.96 0.05L531.96 0.05 526.81 0.05Q526.41 0.05 525.59-0.03 524.76-0.1 523.81-0.35L523.81-0.35Q522.16 0.8 521.41 2.1 520.66 3.4 520.66 4.7L520.66 4.7Q520.66 6.95 522.74 8.35 524.81 9.75 528.66 9.75Z" opacity="1" transform="matrix(1,0,0,1,0,0)" fill="#ffffff" class="undefined-text-1" data-fill-palette-color="secondary" id="text-1"></path></svg></g></svg></g></svg></g></svg></g></svg></g><defs></defs></svg><rect width="395.52" height="150.6076886128484" fill="none" stroke="none" visibility="hidden"></rect></g></svg></g></svg>